<?xml version="1.0" encoding="utf-8"?>
<!-- Generator: Adobe Illustrator 17.1.0, SVG Export Plug-In . SVG Version: 6.00 Build 0)  -->
<!DOCTYPE svg PUBLIC "-//W3C//DTD SVG 1.1//EN" "http://www.w3.org/Graphics/SVG/1.1/DTD/svg11.dtd">
<svg version="1.1" id="Layer_1" xmlns="http://www.w3.org/2000/svg" xmlns:xlink="http://www.w3.org/1999/xlink" x="0px" y="0px"
	 viewBox="0 0 116.6 52.5" enable-background="new 0 0 116.6 52.5" xml:space="preserve">
<g>
	<g>
		<polygon fill="#CED1D1" points="24.8,11.5 23.8,8.6 71.3,14.5 25.3,12.3 		"/>
		<polygon fill="#C6CBCC" points="27,26.1 20.1,17.3 71.3,14.5 		"/>
		<polygon fill="#E9F1F2" points="23.8,8.6 42.9,8.2 71.3,14.5 		"/>
		<polygon fill="#E9F1F2" points="3.9,13.2 13.5,18.7 71.3,14.5 18.9,11.2 		"/>
		<g>
			<polygon fill="#F0F7F7" points="4,13.2 13.6,18.6 13.5,18.5 71.3,14.5 13.5,18.9 13.4,18.9 13.4,18.9 			"/>
		</g>
	</g>
	<g>
		<path fill="#2772B9" d="M10.9,50.1l1.1-8.8H4.1c-0.1,0.6-0.2,1.3-0.3,2.1c-0.1,0.8-0.2,1.5-0.3,2.3c-0.1,0.8-0.2,1.6-0.3,2.3
			c-0.1,0.8-0.2,1.4-0.2,2.1H0l2.3-18.9h3.1c-0.1,0.6-0.1,1.2-0.2,1.8c-0.1,0.7-0.2,1.4-0.3,2.1c-0.1,0.7-0.2,1.4-0.3,2
			c-0.1,0.7-0.2,1.3-0.2,1.8h7.9l0.9-7.8h3.1L14,50.1H10.9z"/>
		<path fill="#2772B9" d="M24.7,36.4c0.5,0,1.1,0,1.7,0.1c0.6,0.1,1.1,0.2,1.7,0.4l0.2-0.6l2.3,0.1c-0.3,1.7-0.5,3.5-0.8,5.5
			c-0.3,2-0.5,4-0.8,6.1l1.6-0.1l0.2,1.7c-0.5,0.2-1,0.4-1.4,0.5c-0.5,0.1-0.8,0.1-1.1,0.1c-0.7,0-1.2-0.1-1.5-0.4
			c-0.3-0.3-0.5-0.8-0.5-1.5l-0.1-0.1c-0.8,0.7-1.6,1.2-2.4,1.5c-0.8,0.3-1.6,0.5-2.2,0.5c-1.3,0-2.3-0.4-3-1.3
			c-0.7-0.8-1-2.1-1-3.6c0-1,0.1-2,0.4-3.1c0.3-1.1,0.7-2,1.2-2.9c0.6-0.9,1.3-1.6,2.2-2.1C22.4,36.6,23.5,36.4,24.7,36.4z
			 M24.8,38.6c-0.5,0-1,0.1-1.5,0.4c-0.5,0.3-0.9,0.6-1.3,1.2c-0.4,0.5-0.7,1.2-1,2c-0.2,0.8-0.4,1.7-0.4,2.8c0,1.2,0.2,2,0.6,2.4
			c0.4,0.5,0.9,0.7,1.5,0.7c0.6,0,1.2-0.2,1.9-0.5c0.7-0.3,1.3-0.8,1.8-1.2l1-7.3c-0.5-0.2-0.9-0.3-1.4-0.3
			C25.6,38.6,25.2,38.6,24.8,38.6z"/>
		<path fill="#2772B9" d="M51.6,36.6l-1.1,9.3c0,0.1,0,0.2,0,0.3c0,0.1,0,0.2,0,0.3c0,0.5,0.1,0.9,0.4,1.2c0.2,0.3,0.7,0.4,1.3,0.4
			c0.5,0,1.1-0.2,1.8-0.5c0.7-0.3,1.3-0.8,2.1-1.5l1.2-9.4H60c-0.3,2.2-0.5,4.4-0.8,6.6c-0.3,2.2-0.5,4.5-0.8,6.9h-2.7
			c0-0.3,0.1-0.6,0.1-0.9c0-0.3,0.1-0.6,0.1-0.9l-0.1-0.1c-1,0.8-1.9,1.4-2.8,1.7c-0.9,0.3-1.6,0.5-2.3,0.5c-0.7,0-1.2-0.1-1.7-0.2
			c-0.4-0.2-0.7-0.4-1-0.6c-0.2-0.3-0.4-0.6-0.5-0.9c-0.1-0.3-0.1-0.7-0.1-1c0-0.3,0-0.6,0-0.9c0-0.3,0.1-0.6,0.1-0.8l1-9.3H51.6z"
			/>
		<path fill="#2772B9" d="M73.9,36.6l-1.1,9.3c0,0.1,0,0.2,0,0.2c0,0.1,0,0.2,0,0.2c0,0.6,0.1,1,0.4,1.2c0.2,0.2,0.6,0.3,1.2,0.3
			c0.4,0,1-0.2,1.6-0.5c0.6-0.3,1.3-0.8,2-1.5l1.1-9.5h3c-0.3,2.3-0.6,4.6-0.9,6.9c-0.3,2.3-0.5,4.5-0.8,6.7h-2.8
			c0-0.4,0.1-0.7,0.1-1c0-0.3,0.1-0.6,0.1-0.9l-0.1-0.1c-1,0.8-1.9,1.4-2.7,1.7c-0.8,0.3-1.5,0.5-2,0.5c-1.1,0-1.8-0.2-2.2-0.7
			c-0.4-0.4-0.7-1-0.8-1.7c-0.5,0.4-1,0.8-1.4,1.1c-0.5,0.3-0.9,0.5-1.4,0.7c-0.4,0.2-0.8,0.3-1.2,0.4c-0.4,0.1-0.7,0.1-0.9,0.1
			c-0.6,0-1.1-0.1-1.5-0.2c-0.4-0.1-0.7-0.4-1-0.6c-0.2-0.3-0.4-0.6-0.5-1c-0.1-0.4-0.2-0.8-0.2-1.2c0-0.1,0-0.3,0-0.5
			c0-0.2,0-0.3,0.1-0.5l1.1-9.8h2.9l-1.1,9.3c0,0.1,0,0.2,0,0.2c0,0.1,0,0.2,0,0.2c0,0.6,0.1,1,0.4,1.2c0.2,0.2,0.6,0.3,1.2,0.3
			c0.4,0,1-0.1,1.6-0.4c0.7-0.3,1.3-0.8,2-1.4l1-9.5H73.9z"/>
		<path fill="#2772B9" d="M91,36.2c1.3,0,2.3,0.3,3,1c0.7,0.7,1,1.5,1,2.6c0,1.6-0.8,2.8-2.3,3.6c-1.5,0.9-3.6,1.4-6.3,1.5
			c0,0.1,0,0.2,0,0.2c0,0,0,0.1,0,0.2c0,0.3,0,0.7,0.1,1c0.1,0.4,0.2,0.7,0.4,0.9c0.2,0.3,0.5,0.5,0.8,0.7c0.3,0.2,0.8,0.2,1.4,0.2
			c0.7,0,1.4-0.1,2.1-0.2c0.7-0.2,1.4-0.4,2.1-0.7l0.6,1.7c-0.3,0.2-0.7,0.4-1.2,0.6c-0.4,0.2-0.9,0.3-1.4,0.4
			c-0.5,0.1-0.9,0.2-1.4,0.3c-0.5,0.1-1,0.1-1.4,0.1c-1,0-1.9-0.1-2.5-0.4c-0.7-0.3-1.2-0.7-1.5-1.2c-0.4-0.5-0.6-1.1-0.8-1.7
			c-0.1-0.7-0.2-1.3-0.2-2.1c0-0.9,0.1-1.9,0.3-2.9c0.2-1,0.6-1.9,1.2-2.8c0.6-0.9,1.3-1.6,2.3-2.1C88.4,36.5,89.6,36.2,91,36.2z
			 M86.7,43.1c1.9-0.1,3.3-0.4,4.2-0.9c1-0.5,1.5-1.2,1.5-2.2c0-0.5-0.1-0.9-0.4-1.2c-0.3-0.3-0.7-0.5-1.3-0.5
			c-1.2,0-2.1,0.4-2.8,1.2C87.2,40.5,86.8,41.6,86.7,43.1z"/>
		<path fill="#2772B9" d="M101.3,39.9l-0.5,2.4c-0.3,1.3-0.5,2.6-0.8,3.9c-0.3,1.3-0.5,2.6-0.8,3.9h-2.8l3.2-13.5h3.3
			c0.3,1.2,0.6,2.5,0.9,3.7c0.3,1.2,0.6,2.5,0.9,3.7c0.1,0.4,0.2,0.8,0.3,1.2c0.1,0.4,0.2,0.8,0.3,1.2h0.1l0.9-2.1
			c0.6-1.3,1.3-2.6,1.8-3.8c0.6-1.3,1.2-2.5,1.8-3.8h3.3c0,2.2,0,4.4,0,6.7c0,2.3,0,4.6,0.1,6.8h-2.8c0-1.2,0-2.4,0.1-3.6
			c0-1.2,0.1-2.5,0.1-3.8l0.1-2.7h-0.1c-0.2,0.4-0.4,0.7-0.5,1.1c-0.2,0.4-0.3,0.7-0.5,1.1c-0.5,1.1-1.1,2.2-1.7,3.3
			c-0.6,1.1-1.1,2.2-1.6,3.3c-0.5,0-1,0-1.4,0c-0.5,0-0.9,0-1.4,0c-0.3-1-0.5-2.1-0.8-3.3c-0.3-1.1-0.5-2.3-0.8-3.4
			c-0.1-0.4-0.2-0.8-0.3-1.2c-0.1-0.4-0.2-0.8-0.3-1.2H101.3z"/>
		<path fill="#2772B9" d="M34.2,36.6c-0.3,2.3-0.5,4.6-0.8,6.8c-0.3,2.2-0.6,4.5-0.8,6.7h3l1.4-11.5h5.6l-1.4,11.5H44l0.4-3.8
			c0.1-1.1,0.2-2.1,0.4-3.1c0.3-2.2,0.5-4.4,0.8-6.6C45.5,36.6,34.2,36.6,34.2,36.6z"/>
	</g>
</g>
</svg>
