<?xml version="1.0" encoding="utf-8"?>
<!-- Generator: Adobe Illustrator 17.1.0, SVG Export Plug-In . SVG Version: 6.00 Build 0)  -->
<!DOCTYPE svg PUBLIC "-//W3C//DTD SVG 1.1//EN" "http://www.w3.org/Graphics/SVG/1.1/DTD/svg11.dtd">
<svg version="1.1" id="Layer_1" xmlns="http://www.w3.org/2000/svg" xmlns:xlink="http://www.w3.org/1999/xlink" x="0px" y="0px"
	 viewBox="0 0 28 28" enable-background="new 0 0 28 28" xml:space="preserve">
<path fill="#3075ae" d="M14,0C6.3,0,0,6.3,0,14c0,7.7,6.3,14,14,14s14-6.3,14-14C28,6.3,21.7,0,14,0z M17.7,22.2
	c-0.9,0.4-1.9,0.3-2.6-0.2c-0.1,0-0.2-0.1-0.3-0.2c-0.1-0.1-2.7-2.4-4.4-6.1c-1.7-3.7-1.7-7.2-1.7-7.3c0-0.1,0-0.2,0-0.2
	c0.1-0.9,0.6-1.8,1.6-2.3c1.3-0.6,2.9,0,3.5,1.3c0.6,1.3,0,2.9-1.3,3.5c0,0-0.1,0-0.2,0c0.2,1,0.5,2.3,1.1,3.5
	c0.6,1.3,1.3,2.3,1.9,3.1c0,0,0.1,0,0.1-0.1c1.3-0.6,2.9,0,3.5,1.3C19.6,20,19,21.6,17.7,22.2z"/>
</svg>
